Coordinates
version=1
nRows=10
nColumns=63
inDegrees=yes

Units are S.I. units (second, meters, Newtons, ...)
If the header above contains a line with 'inDegrees', this indicates whether rotational values are in degrees (yes) or radians (no).

endheader
time	pelvis_tilt	pelvis_list	pelvis_rotation	pelvis_tx	pelvis_ty	pelvis_tz	hip_flexion_r	hip_adduction_r	hip_rotation_r	knee_angle_r	knee_angle_r_beta	ankle_angle_r	subtalar_angle_r	mtp_angle_r	hip_flexion_l	hip_adduction_l	hip_rotation_l	knee_angle_l	knee_angle_l_beta	ankle_angle_l	subtalar_angle_l	mtp_angle_l	L5_S1_Flex_Ext	L5_S1_Lat_Bending	L5_S1_axial_rotation	L4_L5_Flex_Ext	L4_L5_Lat_Bending	L4_L5_axial_rotation	L3_L4_Flex_Ext	L3_L4_Lat_Bending	L3_L4_axial_rotation	L2_L3_Flex_Ext	L2_L3_Lat_Bending	L2_L3_axial_rotation	L1_L2_Flex_Ext	L1_L2_Lat_Bending	L1_L2_axial_rotation	L1_T12_Flex_Ext	L1_T12_Lat_Bending	L1_T12_axial_rotation	Abs_r3	Abs_r2	Abs_r1	Abs_t1	Abs_t2	neck_flexion	neck_bending	neck_rotation	arm_flex_r	arm_add_r	arm_rot_r	elbow_flex_r	pro_sup_r	wrist_flex_r	wrist_dev_r	arm_flex_l	arm_add_l	arm_rot_l	elbow_flex_l	pro_sup_l	wrist_flex_l	wrist_dev_l
      2.23728814	     -1.58865633	     -1.48491899	     92.77835488	      0.19373141	      1.01581917	      0.13175567	      1.55529996	     -3.43483962	    -17.37672079	     15.84874733	      0.27661282	     33.61407043	     17.79847188	      0.00000000	      1.70738666	      0.17085090	    -17.62609024	     15.73373866	      0.27460554	     31.70128505	     14.38803220	      0.00000000	      0.33224307	     -0.08555055	      2.71250619	      0.61700860	     -0.11378223	      2.88203782	      0.54584214	     -0.20800761	      2.88203782	      0.37972060	     -0.20800761	      2.37344291	      0.30852091	     -0.17445468	      2.20391128	      0.18984369	     -0.13251780	      2.03437964	      2.37317902	     -0.96776492	     15.08614566	      0.00000000	      0.00000000	     11.85071593	     -2.07781855	    -35.90448218	     60.75352199	    -51.02759835	     21.75714361	    116.05880919	     58.21546220	     30.57133491	     13.56327587	     -3.27590416	    -29.48528093	     44.64320717	     62.35542785	     89.41642669	    -10.34830447	    -13.09639801
      2.25423729	     -1.66045359	     -1.74481661	     93.05014167	      0.19377809	      1.01543731	      0.13188317	      1.77466451	     -3.59277566	    -18.05101232	     16.07890425	      0.28062982	     33.10209020	     17.76477078	      0.00000000	      1.96159912	      0.22257286	    -17.40323529	     15.71360663	      0.27425417	     31.52345480	     14.41588780	      0.00000000	      0.34750747	     -0.08490659	      2.72067763	      0.64535612	     -0.11292576	      2.89071999	      0.57092002	     -0.20644188	      2.89071999	      0.39716629	     -0.20644188	      2.38059293	      0.32269543	     -0.17314151	      2.21055058	      0.19856577	     -0.13152030	      2.04050823	      2.48221109	     -0.96048030	     15.13159280	      0.00000000	      0.00000000	     12.69969667	     -2.56529948	    -35.09116664	     62.65489096	    -51.96941249	     25.81043938	    120.94924618	     50.35708593	     29.84909210	     19.34929696	     -2.71528555	    -29.48054976	     45.32067356	     62.02614864	     89.39785246	     -9.61223527	    -12.70923659
      2.27118644	     -1.69334201	     -1.94840135	     93.34246558	      0.19382802	      1.01508514	      0.13196223	      1.91638464	     -3.66978132	    -18.57660997	     16.20914500	      0.28290295	     32.73426077	     17.71169814	      0.00000000	      2.15348775	      0.21057568	    -17.33196458	     15.72267322	      0.27441241	     31.33853721	     14.53294077	      0.00000000	      0.35570565	     -0.08137916	      2.72599014	      0.66058097	     -0.10823428	      2.89636453	      0.58438882	     -0.19786528	      2.89636453	      0.40653599	     -0.19786528	      2.38524138	      0.33030827	     -0.16594838	      2.21486699	      0.20325021	     -0.12605631	      2.04449261	      2.54076991	     -0.92057729	     15.16113938	      0.00000000	      0.00000000	     13.38305597	     -2.70075632	    -34.10112027	     64.17385389	    -52.96136537	     29.47776938	    126.42485159	     47.08328547	     28.29042361	     22.41715568	     -2.14963762	    -29.43831637	     45.97713940	     61.65145051	     89.37732856	     -8.93143805	    -12.68804511
      2.28813559	     -1.76432637	     -2.09031335	     93.63492019	      0.19396051	      1.01472011	      0.13218866	      2.07598318	     -3.77682297	    -18.93066647	     16.39619952	      0.28616767	     32.67215296	     17.68506236	      0.00000000	      2.32911574	      0.20635700	    -17.33154029	     15.82920322	      0.27627171	     31.16769736	     14.71368100	      0.00000000	      0.34604200	     -0.08956631	      2.72172065	      0.64263459	     -0.11912320	      2.89182820	      0.56851240	     -0.21777154	      2.89182820	      0.39549140	     -0.21777154	      2.38150557	      0.32133460	     -0.18264363	      2.21139803	      0.19772840	     -0.13873822	      2.04129049	      2.47174338	     -1.01319206	     15.13739377	      0.00000000	      0.00000000	     13.96420063	     -2.76509538	    -33.56053831	     65.45779708	    -53.58457547	     32.32466507	    131.81477243	     48.04689271	     28.11833639	     24.67859600	     -1.70112309	    -29.45993683	     46.38760440	     61.46100239	     89.35596637	     -8.37636424	    -12.96802828
      2.30508475	     -1.80126587	     -2.35798372	     93.91478604	      0.19405066	      1.01429089	      0.13212489	      2.27509514	     -3.78229826	    -19.07072208	     16.30874026	      0.28464121	     32.71065523	     17.67010167	      0.00000000	      2.54883963	      0.21010833	    -17.40023536	     15.77027951	      0.27524330	     30.97367469	     14.85545291	      0.00000000	      0.36266377	     -0.10595509	      2.70313059	      0.67350289	     -0.14092027	      2.87207625	      0.59582031	     -0.25761920	      2.87207625	      0.41448842	     -0.25761920	      2.36523927	      0.33676958	     -0.21606361	      2.19629361	      0.20722608	     -0.16412443	      2.02734794	      2.59047105	     -1.19858514	     15.03400142	      0.00000000	      0.00000000	     14.49054215	     -2.42195314	    -33.48494583	     66.58910676	    -54.06386866	     35.00299968	    136.69224357	     50.13863871	     28.48199600	     26.70361031	     -1.51257163	    -29.52668645	     46.56951113	     61.40248761	     89.34328701	     -8.00490096	    -13.40244001
      2.32203390	     -1.70477939	     -2.38642729	     94.23031682	      0.19405908	      1.01403001	      0.13173261	      2.22245105	     -3.63154749	    -19.24855033	     16.23603802	      0.28337232	     32.93637458	     17.70828114	      0.00000000	      2.60355037	      0.00229378	    -17.56292468	     15.94875395	      0.27835827	     30.99051915	     15.15579789	      0.00000000	      0.35924598	     -0.09096379	      2.65888986	      0.66715571	     -0.12098184	      2.82507047	      0.59020522	     -0.22116935	      2.82507047	      0.41058223	     -0.22116935	      2.32652863	      0.33359582	     -0.18549335	      2.16034801	      0.20527315	     -0.14090291	      1.99416739	      2.56605810	     -1.02900055	     14.78794772	      0.00000000	      0.00000000	     14.75442880	     -2.67155990	    -32.35021836	     67.54440869	    -54.22406980	     37.36495081	    141.27688255	     57.21460609	     26.47010500	     28.47265452	     -1.54594086	    -29.32533961	     46.46340802	     60.98289845	     89.33447342	     -7.78981482	    -15.24612411
      2.33898305	     -1.63335270	     -2.42917188	     94.45522534	      0.19399207	      1.01389640	      0.13158170	      2.22640997	     -3.51606719	    -19.26835109	     16.16593079	      0.28214872	     33.10757883	     17.71001807	      0.00000000	      2.64824657	     -0.12225768	    -17.66801659	     16.02013766	      0.27960415	     30.92818253	     15.25446608	      0.00000000	      0.35718312	     -0.08953340	      2.61662324	      0.66332477	     -0.11907942	      2.78016219	      0.58681615	     -0.21769151	      2.78016219	      0.40822459	     -0.21769151	      2.28954533	      0.33168025	     -0.18257651	      2.12600638	      0.20409444	     -0.13868724	      1.96246743	      2.55132331	     -1.01281975	     14.55287346	      0.00000000	      0.00000000	     14.80778371	     -2.89414359	    -32.48740519	     68.39288148	    -54.34486137	     39.44714265	    143.91653240	     63.19471875	     27.00070773	     28.32791712	     -1.47151006	    -29.22867439	     46.78000662	     60.60528607	     89.33815406	     -8.61610995	    -17.13440083
      2.35593220	     -1.68416118	     -2.47684375	     94.55194602	      0.19417329	      1.01387033	      0.13141035	      2.22820030	     -3.52081773	    -19.19704184	     16.07811429	      0.28061603	     33.25318525	     17.68625470	      0.00000000	      2.66942620	     -0.09220245	    -17.71284020	     16.01443470	      0.27950461	     30.85719438	     15.26092607	      0.00000000	      0.35694520	     -0.10980215	      2.59564305	      0.66288293	     -0.14603686	      2.75787074	      0.58642527	     -0.26697296	      2.75787074	      0.40795267	     -0.26697296	      2.27118767	      0.33145931	     -0.22390855	      2.10895998	      0.20395849	     -0.17008354	      1.94673229	      2.54962386	     -1.24210393	     14.43618793	      0.00000000	      0.00000000	     14.66979681	     -2.84078830	    -33.06433601	     68.95548032	    -54.38882853	     40.94853711	    144.76130674	     64.52744252	     27.83835912	     28.58617437	     -1.36222331	    -29.35818972	     47.07012590	     60.54823278	     89.35108679	     -8.72171648	    -17.86141001
      2.37288136	     -1.56890628	     -2.36879233	     94.74418879	      0.19382422	      1.01422374	      0.13148132	      2.04511173	     -3.34351612	    -19.23381866	     15.91684151	      0.27780129	     33.24022599	     17.62934456	      0.00000000	      2.61167361	     -0.19389867	    -17.50171448	     16.03212909	      0.27981344	     30.83306888	     15.11571068	      0.00000000	      0.34178051	     -0.09425366	      2.55513971	      0.63472059	     -0.12535737	      2.71483594	      0.56151121	     -0.22916835	      2.71483594	      0.39062095	     -0.22916835	      2.23574725	      0.31737738	     -0.19220206	      2.07605102	      0.19529339	     -0.14599892	      1.91635478	      2.44130403	     -1.06621625	     14.21092053	      0.00000000	      0.00000000	     14.14330800	     -3.37433430	    -33.21640522	     69.03335604	    -54.44296527	     41.38543526	    144.22358296	     68.43486708	     28.65348928	     25.32143003	     -0.81399745	    -29.15118547	     48.48907187	     59.62058928	     89.36744286	    -11.14716387	    -20.54987595
      2.38983051	     -1.57037933	     -2.41274803	     94.65546504	      0.19399086	      1.01435998	      0.13167051	      2.09296251	     -3.31268936	    -19.13755052	     15.82781501	      0.27624749	     33.31562308	     17.68907384	      0.00000000	      2.68854732	     -0.16777617	    -17.42816233	     15.98832504	      0.27904891	     30.96948857	     15.15266786	      0.00000000	      0.33528695	     -0.09828906	      2.55986039	      0.62266139	     -0.13072445	      2.71985166	      0.55084292	     -0.23898002	      2.71985166	      0.38319945	     -0.23898002	      2.23987784	      0.31134746	     -0.20043105	      2.07988657	      0.19158296	     -0.15224975	      1.91989529	      2.39492112	     -1.11186549	     14.23717552	      0.00000000	      0.00000000	     13.97102659	     -3.41490995	    -33.28392011	     69.13994261	    -54.12730412	     41.14932617	    143.38817808	     68.42185220	     28.46791875	     25.10284913	     -0.72034381	    -29.03630682	     48.61107052	     59.42590961	     89.40251677	    -11.23202707	    -20.54120306
